<?xml version="1.0" encoding="UTF-8" standalone="no"?>
<!-- Created with Inkscape (http://www.inkscape.org/) -->

<svg
   width="324.39133mm"
   height="196.60843mm"
   viewBox="0 0 324.39134 196.60843"
   version="1.1"
   id="svg9274"
   inkscape:version="1.1.1 (3bf5ae0d25, 2021-09-20)"
   sodipodi:docname="genus1.svg"
   xmlns:inkscape="http://www.inkscape.org/namespaces/inkscape"
   xmlns:sodipodi="http://sodipodi.sourceforge.net/DTD/sodipodi-0.dtd"
   xmlns:xlink="http://www.w3.org/1999/xlink"
   xmlns="http://www.w3.org/2000/svg"
   xmlns:svg="http://www.w3.org/2000/svg">
  <sodipodi:namedview
     id="namedview9276"
     pagecolor="#ffffff"
     bordercolor="#666666"
     borderopacity="1.0"
     inkscape:pageshadow="2"
     inkscape:pageopacity="0.0"
     inkscape:pagecheckerboard="0"
     inkscape:document-units="mm"
     showgrid="false"
     showborder="true"
     fit-margin-top="0"
     fit-margin-left="0"
     fit-margin-right="0"
     fit-margin-bottom="0"
     inkscape:zoom="0.3535534"
     inkscape:cx="796.20221"
     inkscape:cy="179.60512"
     inkscape:window-width="1920"
     inkscape:window-height="1001"
     inkscape:window-x="-9"
     inkscape:window-y="-9"
     inkscape:window-maximized="1"
     inkscape:current-layer="layer1" />
  <defs
     id="defs9271">
    <linearGradient
       inkscape:collect="always"
       id="linearGradient1704">
      <stop
         style="stop-color:#ffffff;stop-opacity:1;"
         offset="0"
         id="stop1700" />
      <stop
         style="stop-color:#ffffff;stop-opacity:0;"
         offset="1"
         id="stop1702" />
    </linearGradient>
    <inkscape:path-effect
       effect="bspline"
       id="path-effect1198"
       is_visible="true"
       lpeversion="1"
       weight="33.333333"
       steps="2"
       helper_size="0"
       apply_no_weight="true"
       apply_with_weight="true"
       only_selected="false" />
    <inkscape:path-effect
       effect="bspline"
       id="path-effect990"
       is_visible="true"
       lpeversion="1"
       weight="33.333333"
       steps="2"
       helper_size="0"
       apply_no_weight="true"
       apply_with_weight="true"
       only_selected="false" />
    <linearGradient
       inkscape:collect="always"
       xlink:href="#linearGradient1704"
       id="linearGradient1706"
       x1="403.05087"
       y1="15.55635"
       x2="402.34375"
       y2="411.53616"
       gradientUnits="userSpaceOnUse"
       gradientTransform="matrix(0.26458333,0,0,0.26458333,-52.454284,-248.94451)" />
  </defs>
  <g
     inkscape:label="Layer 1"
     inkscape:groupmode="layer"
     id="layer1"
     transform="translate(109.31541,291.31866)">
    <g
       id="g1229">
      <rect
         style="fill:#000000;fill-rule:evenodd;stroke-width:0.351355"
         id="rect9357"
         width="324.39133"
         height="196.60843"
         x="-109.31541"
         y="-291.31866" />
      <path
         style="fill:url(#linearGradient1706);fill-opacity:1;stroke:#ffffff;stroke-width:0;stroke-linecap:square;stroke-linejoin:round;stroke-miterlimit:4;stroke-dasharray:none;stroke-opacity:1;paint-order:markers fill stroke"
         d="m 45.767266,-141.0985 c -16.827997,-0.59375 -33.22506,-3.34627 -47.5140365,-7.97601 -26.9961225,-8.74694 -44.2994435,-23.30182 -47.0902985,-39.61053 -0.324704,-1.89745 -0.370131,-2.74439 -0.281881,-5.2554 0.05863,-1.66815 0.241354,-3.61464 0.41273,-4.39659 2.146731,-9.79499 9.044939,-18.64728 20.479918,-26.28136 3.763728,-2.5127 6.113289,-3.84369 10.933235,-6.19354 13.7621845,-6.70941 30.808702,-11.26032 49.683492,-13.26401 11.369257,-1.20692 25.119316,-1.34283 36.950012,-0.36522 44.363483,3.66591 78.964713,21.94549 84.744443,44.76988 1.59323,6.2917 0.90274,12.61775 -2.06068,18.87924 -4.48014,9.46616 -14.05742,18.05613 -27.80864,24.94187 -17.48504,8.75539 -39.938389,13.86301 -64.884366,14.7597 -5.620491,0.20203 -7.644556,0.20084 -13.563928,-0.008 z m 20.392665,-34.67046 c 20.37775,-2.21098 37.352129,-9.81766 50.934889,-22.8253 2.53818,-2.43071 1.74478,-2.00047 -1.02899,0.558 -4.95562,4.57095 -9.80971,8.14437 -15.19437,11.18558 -1.38552,0.78253 -2.58494,1.42277 -2.665381,1.42277 -0.08044,0 -0.462259,-0.51745 -0.848477,-1.14989 -5.80458,-9.50507 -18.412153,-15.92693 -35.407168,-18.03515 -3.2566,-0.40399 -11.585125,-0.56398 -15.069103,-0.28948 -11.253758,0.88665 -20.662545,3.7536 -27.785493,8.46651 -2.95451,1.95485 -6.181418,5.08985 -7.809439,7.587 -0.618154,0.94817 -1.158235,1.82689 -1.200179,1.95273 -0.1396215,0.41886 -5.6378005,-2.71558 -10.1316165,-5.7759 -2.895332,-1.97174 -5.167722,-3.70051 -7.733342,-5.8833 -0.947343,-0.80599 -1.782871,-1.46543 -1.856727,-1.46543 -0.254809,0 0.778661,0.98477 2.643728,2.51916 15.425218,12.69028 35.0308015,20.35602 56.2201425,21.98195 3.180006,0.24401 13.830371,0.0872 16.931526,-0.24925 z"
         id="path1549" />
    </g>
  </g>
</svg>
