<?xml version="1.0" encoding="UTF-8" standalone="no"?>
<!-- Created with Inkscape (http://www.inkscape.org/) -->

<svg
   width="785.83813mm"
   height="119.19865mm"
   viewBox="0 0 785.83813 119.19865"
   version="1.1"
   id="svg3763"
   inkscape:version="1.1.1 (3bf5ae0d25, 2021-09-20)"
   sodipodi:docname="4.svg"
   xmlns:inkscape="http://www.inkscape.org/namespaces/inkscape"
   xmlns:sodipodi="http://sodipodi.sourceforge.net/DTD/sodipodi-0.dtd"
   xmlns:xlink="http://www.w3.org/1999/xlink"
   xmlns="http://www.w3.org/2000/svg"
   xmlns:svg="http://www.w3.org/2000/svg">
  <sodipodi:namedview
     id="namedview3765"
     pagecolor="#ffffff"
     bordercolor="#666666"
     borderopacity="1.0"
     inkscape:pageshadow="2"
     inkscape:pageopacity="0.0"
     inkscape:pagecheckerboard="0"
     inkscape:document-units="mm"
     showgrid="false"
     fit-margin-top="0"
     fit-margin-left="0"
     fit-margin-right="0"
     fit-margin-bottom="0"
     inkscape:zoom="0.46929649"
     inkscape:cx="2197.9708"
     inkscape:cy="314.30024"
     inkscape:window-width="1920"
     inkscape:window-height="1001"
     inkscape:window-x="-9"
     inkscape:window-y="-9"
     inkscape:window-maximized="1"
     inkscape:current-layer="layer1" />
  <defs
     id="defs3760">
    <linearGradient
       inkscape:collect="always"
       id="linearGradient5279">
      <stop
         style="stop-color:#ffffff;stop-opacity:1;"
         offset="0"
         id="stop5275" />
      <stop
         style="stop-color:#ffffff;stop-opacity:0;"
         offset="1"
         id="stop5277" />
    </linearGradient>
    <inkscape:path-effect
       effect="bspline"
       id="path-effect4546"
       is_visible="true"
       lpeversion="1"
       weight="33.333333"
       steps="2"
       helper_size="0"
       apply_no_weight="true"
       apply_with_weight="true"
       only_selected="false" />
    <inkscape:path-effect
       effect="bspline"
       id="path-effect4542"
       is_visible="true"
       lpeversion="1"
       weight="33.333333"
       steps="2"
       helper_size="0"
       apply_no_weight="true"
       apply_with_weight="true"
       only_selected="false" />
    <inkscape:path-effect
       effect="bspline"
       id="path-effect4372"
       is_visible="true"
       lpeversion="1"
       weight="33.333333"
       steps="2"
       helper_size="0"
       apply_no_weight="true"
       apply_with_weight="true"
       only_selected="false" />
    <inkscape:path-effect
       effect="bspline"
       id="path-effect4179"
       is_visible="true"
       lpeversion="1"
       weight="33.333333"
       steps="2"
       helper_size="0"
       apply_no_weight="true"
       apply_with_weight="true"
       only_selected="false" />
    <linearGradient
       inkscape:collect="always"
       xlink:href="#linearGradient5279"
       id="linearGradient5281"
       x1="-97.110458"
       y1="-1004.0003"
       x2="-97.110458"
       y2="-594.44464"
       gradientUnits="userSpaceOnUse"
       gradientTransform="matrix(0.26458333,0,0,0.26458333,31.071516,0.60028584)" />
  </defs>
  <g
     inkscape:label="Layer 1"
     inkscape:groupmode="layer"
     id="layer1"
     transform="translate(387.47583,270.28992)">
    <g
       id="g6914">
      <rect
         style="fill:#000000;fill-rule:evenodd;stroke-width:0.419003"
         id="rect3846"
         width="785.83813"
         height="119.19865"
         x="-387.47583"
         y="-270.28992" />
      <path
         style="fill:#000000;stroke:#ffffff;stroke-width:0;stroke-linecap:square;stroke-linejoin:round;stroke-miterlimit:4;stroke-dasharray:none;stroke-opacity:1;paint-order:markers fill stroke"
         d="m -280.14947,-157.76335 c -17.30684,-2.87771 -33.85888,-13.4535 -43.22101,-27.61573 -5.88938,-8.90895 -7.55282,-14.63072 -7.47381,-25.70788 0.0555,-7.77642 0.37309,-9.98555 2.09121,-14.54427 7.00529,-18.58723 24.07314,-32.80129 45.14067,-37.59299 7.23738,-1.6461 26.20478,-1.68579 37.5131,-0.0785 17.86461,2.5392 38.38853,9.12405 55.95621,17.95287 8.41001,4.22653 22.26361,10.11705 30.04375,12.77452 10.89452,3.72125 18.78905,5.07906 29.31584,5.04213 13.94018,-0.0489 20.15458,-1.8599 47.440262,-13.82495 24.292192,-10.65237 44.966916,-17.53863 62.895702,-20.94905 7.740306,-1.47237 12.0767125,-1.76346 26.403626,-1.77245 14.711243,-0.009 18.422755,0.24741 26.171409,1.8096 18.951071,3.82071 37.706784,10.2384 65.121208,22.28271 30.331713,13.32599 42.800223,15.31178 63.929923,10.18175 10.00936,-2.43015 18.95047,-5.86598 35.35009,-13.58408 22.62221,-10.64662 35.84873,-15.30607 53.6688,-18.90649 7.55276,-1.52599 11.45071,-1.80043 25.64984,-1.80588 15.3488,-0.006 17.23944,0.14926 22.6954,1.86249 20.80612,6.53335 36.71969,21.55491 41.9255,39.57546 1.84174,6.37538 1.85166,17.67233 0.0209,23.90143 -4.33665,14.75602 -15.79805,27.38232 -31.82961,35.06467 -11.61595,5.5664 -16.10059,6.43645 -32.81227,6.36587 -26.25889,-0.11092 -45.72652,-5.2351 -78.53556,-20.67178 -27.35571,-12.87088 -37.81168,-15.89596 -55.01477,-15.91666 -16.03928,-0.0193 -19.31108,0.95442 -54.254764,16.14693 -20.406643,8.87223 -41.824616,15.65788 -58.575201,18.55781 -13.075144,2.26363 -33.1760255,2.46826 -45.822396,0.46646 -19.068068,-3.01828 -40.328461,-9.97329 -69.778509,-22.82694 -24.2232,-10.57237 -31.94974,-12.73845 -45.44698,-12.74074 -15.87803,-0.003 -29.07819,4.06977 -59.34411,18.30861 -15.05447,7.08251 -32.92629,13.3582 -45.1042,15.83836 -15.08606,3.07244 -33.93336,4.10053 -44.12033,2.40668 z m 33.98817,-37.8398 c 7.73792,-1.58625 15.99575,-4.85911 23.00641,-9.11823 6.14872,-3.73548 13.74119,-9.59772 13.79809,-10.65366 0.0207,-0.3851 -1.12836,0.24953 -2.55356,1.41027 -1.4252,1.16075 -4.92342,3.72155 -7.77383,5.69066 l -5.18254,3.58021 -2.62536,-3.15796 c -3.50321,-4.21388 -12.17031,-9.87629 -18.24662,-11.92092 -14.26686,-4.80068 -30.40891,-1.46756 -41.03677,8.47357 l -3.90165,3.64954 -1.97345,-1.85397 c -1.08543,-1.01968 -3.2907,-3.76652 -4.90064,-6.10409 -1.60993,-2.33756 -3.08144,-4.09584 -3.27001,-3.90728 -0.56544,0.56545 4.18462,7.03299 7.87784,10.7262 12.08365,12.08366 28.95756,16.83962 46.78209,13.18566 z m 265.506028,0.0105 c 9.426206,-1.91624 17.031041,-6.03301 24.177004,-13.08791 3.339436,-3.29687 6.666044,-7.25008 7.392462,-8.78492 l 1.320769,-2.7906 -1.811254,2.38155 c -0.99619,1.30985 -3.836187,4.52012 -6.311102,7.13393 l -4.499857,4.75239 -4.546532,-4.15528 c -8.902505,-8.13638 -16.925795,-11.30856 -28.6023438,-11.30856 -12.0857877,0 -20.8909062,3.52246 -29.3426742,11.73845 l -3.719444,3.61569 -2.659081,-1.84477 c -1.462489,-1.01463 -4.363339,-3.24695 -6.446326,-4.96071 -2.082986,-1.71377 -3.787249,-2.76174 -3.787249,-2.32883 0,0.43291 2.601243,2.76053 5.780537,5.1725 17.204172,13.05191 35.4894745,18.03795 53.055091,14.46707 z m 265.273092,-1.49998 c 8.01524,-2.68304 15.23858,-7.33437 20.57438,-13.24846 4.42294,-4.90231 7.48176,-9.51633 6.30875,-9.51633 -0.39293,0 -1.08336,0.80728 -1.53429,1.79396 -0.45093,0.98668 -2.51449,3.67691 -4.5857,5.97829 l -3.76582,4.18434 -4.11342,-3.61957 c -16.93626,-14.90288 -42.86215,-13.62944 -58.28896,2.86307 l -3.7029,3.9587 -4.77426,-3.24213 c -2.62583,-1.78318 -6.07771,-4.38659 -7.67082,-5.78536 -1.59311,-1.39877 -2.71994,-2.01334 -2.50406,-1.3657 0.57876,1.73628 10.65312,9.19097 16.61684,12.29589 6.34124,3.30148 15.57185,6.6521 21.03884,7.63688 7.33665,1.32157 19.29302,0.44591 26.40142,-1.93358 z"
         id="path4791" />
      <path
         style="fill:url(#linearGradient5281);fill-opacity:1;stroke:#ffffff;stroke-width:0;stroke-linecap:square;stroke-linejoin:round;stroke-miterlimit:4;stroke-dasharray:none;stroke-opacity:1;paint-order:markers fill stroke"
         d="m -280.4894,-157.697 c -19.16957,-3.45795 -38.01565,-16.83423 -46.04637,-32.68207 -4.65949,-9.19509 -5.98641,-22.69378 -3.18436,-32.39481 5.12418,-17.74064 20.9129,-32.7293 41.46682,-39.3656 7.81569,-2.52346 28.72724,-3.12824 41.8937,-1.21158 17.0255,2.47842 33.33834,7.42718 50.59489,15.34874 23.23473,10.66584 26.82863,12.2168 34.48114,14.88046 12.10654,4.21401 19.18212,5.5117 30.10141,5.5207 14.07876,0.0116 20.91922,-1.98319 49.433553,-14.41567 37.532214,-16.36434 61.561034,-22.49218 88.1033545,-22.46815 26.3054215,0.0238 49.0702285,6.22767 92.9007705,25.31729 28.705712,12.50226 40.990662,14.3355 62.006182,9.25294 9.54505,-2.30845 21.64536,-7.01752 38.89984,-15.13865 29.54862,-13.90758 46.70681,-19.01312 72.49656,-19.75349 13.96399,-0.4009 16.25497,0.28685 22.49168,1.78058 19.35423,4.63549 34.94052,16.80623 42.52022,33.20244 8.20261,17.74364 4.81817,36.65005 -9.25904,51.72382 -12.93958,13.85558 -30.04857,21.12704 -49.88785,21.20273 -25.48188,0.0972 -48.22365,-5.76604 -80.57526,-20.77382 -32.66709,-15.15413 -49.8881,-19.04463 -68.51996,-15.47977 -8.73768,1.6718 -11.74959,2.75281 -33.375156,11.97875 -23.259827,9.92316 -36.380491,14.72228 -50.163858,18.34832 -41.4404789,10.90191 -72.536481,6.70108 -128.944282,-17.41934 -29.659314,-12.68257 -36.916664,-14.61787 -52.048524,-13.87969 -14.35103,0.7001 -27.25986,4.79691 -52.73527,16.73637 -22.07705,10.34677 -36.9345,15.37558 -54.56848,18.46986 -8.90516,1.56261 -32.06795,2.30444 -38.08171,1.21964 z m 38.87904,-39.03052 c 8.48208,-2.39807 17.98281,-7.18623 25.50332,-12.85311 3.56018,-2.68268 6.30491,-5.04574 6.0994,-5.25126 -0.20551,-0.20551 -2.64621,1.37919 -5.42376,3.52156 -9.49446,7.32323 -8.41752,7.20639 -14.32816,1.55461 -6.05074,-5.78573 -13.26371,-9.66058 -21.01991,-11.29202 -6.94981,-1.46181 -9.76554,-1.47001 -16.475,-0.048 -7.00167,1.48399 -12.72495,4.27029 -18.74967,9.12802 l -4.92667,3.97237 -3.0542,-3.33978 c -1.67983,-1.83688 -3.84667,-4.41616 -4.8152,-5.73173 -0.96853,-1.31557 -1.77234,-2.01327 -1.78623,-1.55044 -0.0464,1.54547 8.49903,11.20036 12.53649,14.16413 5.29008,3.88327 13.18583,7.51289 19.43521,8.93421 6.82217,1.55161 19.20105,0.99758 27.00438,-1.2086 z m 266.227138,-0.27245 c 7.498185,-2.60761 12.272677,-5.49439 17.931616,-10.8419 4.74425,-4.48316 9.253323,-10.03778 9.253323,-11.39894 0,-0.40632 -1.298898,0.99299 -2.886441,3.10956 -3.521726,4.69531 -8.485525,9.60395 -9.390486,9.60395 -0.366471,0 -2.052736,-1.23274 -3.899518,-3.01349 -8.002894,-7.71675 -15.839509,-11.17976 -26.5257761,-11.72177 -12.4597354,-0.63195 -21.3643449,2.3876 -30.9024079,10.47899 l -5.239485,4.31643 -5.131356,-3.71554 c -6.477432,-4.69022 -7.72247,-5.6274 -5.832488,-3.47109 2.132349,2.43284 12.054324,9.13395 17.650912,11.92109 5.548159,2.76302 13.9222105,5.62928 19.3406475,6.61991 6.6992117,1.22478 19.3644075,0.29226 25.6314595,-1.8872 z m 257.572952,0.71188 c 7.16469,-1.95425 14.18055,-5.88909 19.69055,-11.04341 4.98568,-4.66386 10.37614,-11.46451 9.65713,-12.18351 -0.18856,-0.18856 -1.66007,1.56972 -3.27001,3.90728 -1.60993,2.33757 -3.98181,4.89638 -5.00214,5.97683 l -1.65012,1.73007 -3.67247,-2.9451 c -17.44578,-13.99047 -40.85939,-14.74259 -57.13331,0.96855 l -5.30831,4.90567 -4.38635,-2.63287 c -2.45546,-1.47387 -5.4808,-3.95369 -6.92127,-5.20104 -1.44045,-1.24735 -2.8071,-2.26791 -3.03698,-2.26791 -2.11371,0 8.43781,7.97164 15.82738,11.95752 6.50671,3.50967 12.83298,5.90733 20.12661,7.628 5.76867,1.36091 18.665,0.94949 25.07929,-0.80008 z"
         id="path5089"
         sodipodi:nodetypes="sscsssssssssssssssssssssssscssssscsccssssccsssssssscsssssssssscsscssssss" />
    </g>
  </g>
</svg>
