<?xml version="1.0" encoding="UTF-8" standalone="no"?>
<!-- Created with Inkscape (http://www.inkscape.org/) -->

<svg
   width="122.1277mm"
   height="32.763817mm"
   viewBox="0 0 122.1277 32.763817"
   version="1.1"
   id="svg955"
   inkscape:version="1.1.1 (3bf5ae0d25, 2021-09-20)"
   sodipodi:docname="infinite.svg"
   xmlns:inkscape="http://www.inkscape.org/namespaces/inkscape"
   xmlns:sodipodi="http://sodipodi.sourceforge.net/DTD/sodipodi-0.dtd"
   xmlns:xlink="http://www.w3.org/1999/xlink"
   xmlns="http://www.w3.org/2000/svg"
   xmlns:svg="http://www.w3.org/2000/svg">
  <sodipodi:namedview
     id="namedview957"
     pagecolor="#ffffff"
     bordercolor="#666666"
     borderopacity="1.0"
     inkscape:pageshadow="2"
     inkscape:pageopacity="0.0"
     inkscape:pagecheckerboard="0"
     inkscape:document-units="mm"
     showgrid="false"
     fit-margin-top="0"
     fit-margin-left="0"
     fit-margin-right="0"
     fit-margin-bottom="0"
     inkscape:zoom="1"
     inkscape:cx="240.5"
     inkscape:cy="-50.5"
     inkscape:window-width="1920"
     inkscape:window-height="1001"
     inkscape:window-x="-9"
     inkscape:window-y="-9"
     inkscape:window-maximized="1"
     inkscape:current-layer="layer1" />
  <defs
     id="defs952">
    <linearGradient
       inkscape:collect="always"
       id="linearGradient4704">
      <stop
         style="stop-color:#ffffff;stop-opacity:1;"
         offset="0"
         id="stop4700" />
      <stop
         style="stop-color:#ffffff;stop-opacity:0;"
         offset="1"
         id="stop4702" />
    </linearGradient>
    <linearGradient
       inkscape:collect="always"
       id="linearGradient1846">
      <stop
         style="stop-color:#ffffff;stop-opacity:1;"
         offset="0"
         id="stop1842" />
      <stop
         style="stop-color:#ffffff;stop-opacity:0;"
         offset="1"
         id="stop1844" />
    </linearGradient>
    <linearGradient
       inkscape:collect="always"
       xlink:href="#linearGradient1846"
       id="linearGradient1848"
       x1="323.57196"
       y1="449.76126"
       x2="324.702"
       y2="536.77533"
       gradientUnits="userSpaceOnUse"
       gradientTransform="matrix(0.26458333,0,0,0.26458333,-1.7281608,-0.98025763)" />
    <linearGradient
       inkscape:collect="always"
       xlink:href="#linearGradient4704"
       id="linearGradient4706"
       x1="39.175182"
       y1="61.870422"
       x2="48.545212"
       y2="61.870422"
       gradientUnits="userSpaceOnUse"
       gradientTransform="matrix(0.26458333,0,0,0.26458333,22.95824,111.40039)" />
    <linearGradient
       inkscape:collect="always"
       xlink:href="#linearGradient4704"
       id="linearGradient6472"
       gradientUnits="userSpaceOnUse"
       gradientTransform="matrix(-0.26458333,0,0,0.26458333,145.92781,111.46584)"
       x1="39.175182"
       y1="61.870422"
       x2="48.545212"
       y2="61.870422" />
  </defs>
  <g
     inkscape:label="Layer 1"
     inkscape:groupmode="layer"
     id="layer1"
     transform="translate(-23.992088,-111.41693)">
    <g
       id="g6594">
      <rect
         style="fill:#000000;fill-rule:evenodd;stroke-width:0.0722892"
         id="rect1038"
         width="122.1277"
         height="32.763817"
         x="23.992088"
         y="111.41693" />
      <path
         style="fill:#000000;stroke:#ffffff;stroke-width:0.1;stroke-linecap:square;stroke-linejoin:round;stroke-miterlimit:4;stroke-dasharray:0.1, 0.8;stroke-dashoffset:0"
         d="m 133.9568,127.87605 h 10.46143"
         id="path1485-9-4"
         sodipodi:nodetypes="cc" />
      <path
         style="fill:#ffffff;stroke:#ffffff;stroke-width:0.0842598;stroke-linecap:square;stroke-linejoin:round;stroke-miterlimit:4;stroke-dasharray:0.0842598, 0.674078;stroke-dashoffset:0"
         d="M 34.807025,127.77224 H 24.345595"
         id="path1485-9-4-3"
         sodipodi:nodetypes="cc" />
      <path
         style="fill:url(#linearGradient4706);fill-opacity:1;stroke:#666666;stroke-width:0;stroke-linecap:square;stroke-linejoin:round;stroke-miterlimit:4;stroke-dasharray:none;stroke-dashoffset:0;paint-order:markers fill stroke"
         d="m 34.580241,135.05926 c -0.19521,-0.0791 -0.424998,-0.55902 -0.596945,-1.24683 -0.491482,-1.96601 -0.687727,-5.60047 -0.472222,-8.74556 0.166843,-2.43491 0.547417,-4.23434 0.974944,-4.60971 0.07171,-0.063 0.105613,-0.0745 0.218724,-0.0745 0.128999,0 0.137912,0.004 0.245305,0.12395 0.481237,0.53525 0.865638,2.68521 0.989033,5.53165 0.03232,0.7456 0.0325,2.66311 3.17e-4,3.37649 -0.122266,2.70964 -0.456085,4.69864 -0.91052,5.42515 -0.1305,0.20863 -0.286628,0.28498 -0.448625,0.21937 z"
         id="path4631" />
      <path
         style="fill:url(#linearGradient1848);fill-opacity:1;stroke:#ffffff;stroke-width:0;stroke-linecap:square;stroke-linejoin:round;stroke-miterlimit:4;stroke-dasharray:none;stroke-dashoffset:0;paint-order:markers fill stroke"
         d="m 122.90221,137.63936 c -0.85267,-0.10859 -2.19324,-0.5147 -4.11004,-1.24512 -2.60992,-0.99452 -3.50092,-1.21968 -4.80993,-1.21548 -1.28816,0.004 -2.30044,0.24719 -4.9529,1.18928 -3.13648,1.114 -3.44655,1.18445 -5.21287,1.18436 -1.77538,-8e-5 -2.08171,-0.0736 -4.994462,-1.19816 -2.848009,-1.09959 -3.2235,-1.1927 -4.772654,-1.18338 -1.529885,0.009 -2.216246,0.16815 -4.933389,1.14251 -2.483544,0.89059 -3.637312,1.18739 -4.883555,1.25628 -1.653172,0.0914 -2.526443,-0.11689 -5.927384,-1.41359 -2.321634,-0.8852 -3.144935,-1.06773 -4.587213,-1.01702 -1.440281,0.0506 -2.07935,0.2076 -4.785633,1.17544 -2.958234,1.05794 -3.618338,1.21246 -5.180811,1.21281 -1.579661,2.6e-4 -2.287024,-0.17011 -5.19512,-1.25188 -1.089396,-0.40524 -2.294663,-0.81429 -2.678369,-0.909 -0.38371,-0.0947 -0.775529,-0.21323 -0.870712,-0.26338 -0.600525,-0.31639 -2.072654,0.05 -5.590382,1.39128 -2.247,0.85678 -3.054011,1.04631 -4.452162,1.04561 -1.51489,-7.9e-4 -2.299316,-0.1747 -5.381879,-1.19344 -1.397793,-0.46195 -3.034781,-0.93853 -3.637751,-1.05907 -0.602972,-0.12053 -1.107717,-0.22457 -1.121658,-0.23118 -0.01394,-0.007 0.13901,-0.0971 0.21862,-0.25679 0.120349,-0.24134 0.297672,-0.66229 0.413045,-1.17513 0.09306,-0.41364 0.16693,-0.91955 0.253027,-1.4942 0.248639,-1.65952 0.10808,-7.12799 -0.14056,-8.78752 -0.191278,-1.27666 -0.407143,-2.18752 -0.619199,-2.61275 -0.162912,-0.32668 -0.162869,-0.32671 0.708147,-0.41398 0.874874,-0.0877 2.120598,-0.44165 4.225322,-1.20069 2.831941,-1.0213 3.510931,-1.18401 4.933389,-1.18223 1.47787,0.002 2.519505,0.24607 5.327613,1.24911 2.087567,0.74567 3.625212,1.17677 4.202477,1.17822 0.574408,0.001 2.097072,-0.42352 4.389676,-1.22513 2.81387,-0.98387 3.711884,-1.19239 5.165973,-1.19949 1.435201,-0.007 2.151208,0.16311 4.892633,1.16249 2.238513,0.81605 3.287892,1.10433 4.594553,1.26221 1.174724,0.14192 1.764213,0.0125 5.213316,-1.14489 3.209618,-1.077 3.936769,-1.24627 5.352761,-1.24609 1.323253,1.6e-4 2.411026,0.2626 4.944578,1.19291 3.162954,1.16142 4.833155,1.46758 6.29679,1.15425 0.411115,-0.088 2.003253,-0.58364 3.538085,-1.10138 5.108278,-1.72319 5.413808,-1.71394 11.187108,0.33839 1.66831,0.59305 3.10258,0.90731 4.14104,0.90731 0.91735,0 2.04237,-0.2824 4.31571,-1.0833 2.3482,-0.82728 2.85119,-0.98544 3.66397,-1.15208 2.30525,-0.47265 3.18127,-0.32323 7.83731,1.33678 1.3887,0.49511 2.94633,0.89376 3.50502,0.89704 0.54686,0.003 0.57433,0.0603 0.32722,0.67968 -0.79599,1.99514 -1.00523,8.41638 -0.38711,11.8796 0.1643,0.92052 0.40939,1.76967 0.56883,1.97078 0.0554,0.0698 0.0831,0.14194 0.0616,0.16022 -0.0215,0.0183 -0.46519,0.10919 -0.98593,0.202 -0.52075,0.0928 -2.09295,0.54777 -3.49379,1.01102 -1.40083,0.46324 -2.9506,0.93035 -3.44393,1.03802 -0.9107,0.19877 -2.4937,0.31957 -3.12839,0.23875 z m -36.625047,-7.21249 c 1.005819,-0.25724 2.03682,-0.75936 2.853105,-1.38953 0.843862,-0.65145 1.855478,-1.92068 1.759746,-2.20787 -0.01807,-0.0542 -0.269539,0.24196 -0.558837,0.65809 -0.289298,0.41613 -0.583723,0.77876 -0.654275,0.80583 -0.07055,0.0271 -0.427312,-0.13244 -0.792794,-0.35448 -0.834562,-0.50701 -1.878838,-0.92344 -2.907573,-1.15946 -1.135562,-0.26052 -3.103618,-0.23669 -4.185904,0.0507 -0.94592,0.25118 -2.084813,0.77351 -2.747931,1.26028 l -0.477882,0.3508 -0.480047,-0.58498 c -0.264027,-0.32174 -0.578466,-0.71579 -0.698754,-0.87568 -0.135953,-0.1807 -0.22044,-0.23413 -0.223287,-0.1412 -0.0077,0.25024 0.939813,1.42495 1.530265,1.89727 1.24623,0.9969 2.797035,1.67458 4.309838,1.88334 0.92909,0.12821 2.344351,0.0447 3.27433,-0.19311 z m 20.162577,0.004 c 1.45846,-0.41561 2.96006,-1.36622 3.77358,-2.38894 0.49948,-0.6279 0.77121,-1.09446 0.68667,-1.17899 -0.0315,-0.0314 -0.0712,-0.0385 -0.0883,-0.0157 -0.0171,0.0228 -0.23732,0.33541 -0.48932,0.69459 -0.67405,0.96077 -0.62581,0.94549 -1.40414,0.4447 -1.31974,-0.84913 -3.13154,-1.34692 -4.90241,-1.34692 -1.80804,0 -3.44587,0.46412 -4.734062,1.34152 l -0.647819,0.44123 -0.379016,-0.36814 c -0.208457,-0.20247 -0.515752,-0.58099 -0.682876,-0.84115 -0.351018,-0.54643 -0.579882,-0.54988 -0.257739,-0.004 0.354378,0.60062 1.346787,1.59267 2.082618,2.08185 0.874844,0.58159 2.114324,1.08878 3.130414,1.28095 1.08124,0.20449 2.93404,0.13765 3.91242,-0.14115 z m 19.73324,0.0949 c 1.6093,-0.38581 3.03993,-1.24136 3.99522,-2.38925 0.54037,-0.64932 0.8585,-1.17941 0.76434,-1.27357 -0.0314,-0.0314 -0.0712,-0.0385 -0.0883,-0.0157 -0.0171,0.0228 -0.23732,0.33541 -0.48932,0.69459 -0.68838,0.98119 -0.63678,0.96542 -1.47258,0.45012 -2.94395,-1.81507 -7.05833,-1.77072 -9.69284,0.10449 -0.2605,0.18542 -0.51675,0.33713 -0.56944,0.33713 -0.0957,0 -0.90408,-0.93127 -1.2134,-1.39783 -0.0899,-0.13564 -0.19517,-0.21615 -0.23385,-0.17889 -0.0387,0.0373 0.0777,0.28393 0.25871,0.54816 1.04074,1.51952 2.93044,2.73099 4.92255,3.15582 1.04323,0.22247 2.81234,0.2062 3.81893,-0.0351 z m -79.232908,-0.18999 c 0.794121,-0.23126 1.910421,-0.76009 2.592602,-1.22821 0.845563,-0.58024 2.240476,-2.17079 2.061093,-2.35017 -0.03717,-0.0372 -0.132921,0.022 -0.212769,0.13158 -0.5308,0.72819 -1.061308,1.36186 -1.177478,1.40644 -0.075,0.0288 -0.353814,-0.10238 -0.619591,-0.29147 -2.394715,-1.70369 -5.866283,-1.92939 -8.852207,-0.5755 -0.351001,0.15915 -0.850939,0.43574 -1.110969,0.61465 l -0.472782,0.32528 -0.335814,-0.38848 c -0.1847,-0.21367 -0.45688,-0.58013 -0.604846,-0.81435 -0.25151,-0.39813 -0.418525,-0.53527 -0.418525,-0.34365 0,0.0454 0.138395,0.29152 0.307546,0.54689 1.007671,1.52131 2.543876,2.57439 4.468363,3.0631 1.045318,0.26545 3.304188,0.21583 4.375377,-0.0961 z m 19.6019,-0.006 c 1.844013,-0.58593 3.433299,-1.78527 4.219582,-3.18427 0.316463,-0.56307 0.105556,-0.51101 -0.272695,0.0673 -0.170296,0.26037 -0.438454,0.62744 -0.595905,0.81571 l -0.286271,0.3423 -0.485879,-0.31108 c -1.443728,-0.92434 -2.963687,-1.40351 -4.721616,-1.48851 -1.920745,-0.0929 -3.573603,0.33112 -5.073671,1.30151 l -0.73355,0.47453 -0.338801,-0.32838 c -0.186341,-0.18061 -0.483068,-0.54122 -0.659395,-0.80137 -0.304088,-0.44863 -0.470088,-0.58615 -0.470088,-0.38942 0,0.17962 0.876692,1.27105 1.394389,1.73593 0.996939,0.89524 2.464131,1.61949 3.887827,1.91918 1.005142,0.21157 3.249322,0.12832 4.136073,-0.15344 z"
         id="path1656"
         sodipodi:nodetypes="sccssccscccscsccccsccssssscscscsssccssscssssscsscsssssscssscsssscsscssccscscssscsscsscccssssssscscscccsccccsccssscscccssscscscscscccc" />
      <path
         style="fill:url(#linearGradient6472);fill-opacity:1;stroke:#666666;stroke-width:0;stroke-linecap:square;stroke-linejoin:round;stroke-miterlimit:4;stroke-dasharray:none;stroke-dashoffset:0;paint-order:markers fill stroke"
         d="m 134.30581,135.12471 c 0.19521,-0.0791 0.42499,-0.55902 0.59694,-1.24683 0.49148,-1.96601 0.68773,-5.60047 0.47222,-8.74556 -0.16684,-2.43491 -0.54741,-4.23434 -0.97494,-4.60971 -0.0717,-0.063 -0.10561,-0.0745 -0.21873,-0.0745 -0.12899,0 -0.13791,0.004 -0.2453,0.12395 -0.48124,0.53525 -0.86564,2.68521 -0.98903,5.53165 -0.0323,0.7456 -0.0325,2.66311 -3.2e-4,3.37649 0.12227,2.70964 0.45608,4.69864 0.91052,5.42515 0.1305,0.20863 0.28663,0.28498 0.44862,0.21937 z"
         id="path6470" />
    </g>
  </g>
</svg>
